# xmcd CD database file
#
# Track frame offsets:
#	150
#	13047
#	30955
#	41880
#	60275
#	76517
#	94442
#	116945
#	131385
#	139457
#
# Disc length: 2028 seconds
#
# Revision: 0
# Processed by: cddbd v1.5.1PL0 Copyright (c) Steve Scherf et al.
# Submitted via: CDex 1.51
#
DISCID=7e07ea0a
DTITLE=BEROTECS - SONNY'S GUINNESS
DYEAR=1998
DGENRE=Alt Rock
TTITLE0=GUINESS BOOK OF RECORD
TTITLE1=MIMOSA
TTITLE2=TROCHE
TTITLE3=TACOS DEL AMIGO
TTITLE4=LESS COMPELOR
TTITLE5=PLANETARIUM
TTITLE6=EAGER
TTITLE7=MELON
TTITLE8=HOUTE
TTITLE9=M.T.F.
EXTD=YEAR: 1998
EXTT0=
EXTT1=
EXTT2=
EXTT3=
EXTT4=
EXTT5=
EXTT6=
EXTT7=
EXTT8=
EXTT9=
PLAYORDER=
